<?xml version="1.0" encoding="utf-8"?>
<!-- Generator: Adobe Illustrator 21.0.0, SVG Export Plug-In . SVG Version: 6.00 Build 0)  -->
<svg version="1.1" id="Layer_1" xmlns="http://www.w3.org/2000/svg" xmlns:xlink="http://www.w3.org/1999/xlink" x="0px" y="0px"
	 viewBox="0 0 228.5 228.5" style="enable-background:new 0 0 228.5 228.5;" xml:space="preserve">
<style type="text/css">
	.st0{fill:#F9DC04;}
</style>
<path class="st0" d="M114.3,0C51.2,0,0,51.2,0,114.3s51.2,114.3,114.3,114.3s114.3-51.2,114.3-114.3C228.5,51.2,177.4,0,114.3,0z
	 M139.5,99.3l-1.3,15.3h-18.8v61.1H93.9v-61.1h-5.1V99.3h5.1V83.4c0-5.1,2.4-12.9,6.1-17.7c3.9-5.1,10.3-8.6,19.5-8.6
	c14.9,0,21.8,2.1,21.8,2.1l-2.7,17.5c0,0-5.4-1.4-10-1.4c-4.6,0-9.2,1.6-9.2,6.2v17.8L139.5,99.3L139.5,99.3z"/>
</svg>
