<?xml version="1.0" encoding="utf-8"?>
<!-- Generator: Adobe Illustrator 21.0.0, SVG Export Plug-In . SVG Version: 6.00 Build 0)  -->
<svg version="1.1" id="Layer_1" xmlns="http://www.w3.org/2000/svg" xmlns:xlink="http://www.w3.org/1999/xlink" x="0px" y="0px"
	 viewBox="0 0 200.9 200.9" style="enable-background:new 0 0 200.9 200.9;" xml:space="preserve">
<style type="text/css">
	.st0{fill:#F9DC04;}
</style>
<path class="st0" d="M138.3,80.1c0-10.8-8.8-19.6-19.6-19.6H77.4c-10.8,0-19.6,8.8-19.6,19.6v41.3c0,10.8,8.8,19.6,19.6,19.6h41.3
	c10.8,0,19.6-8.8,19.6-19.6V80.1z M100.5,126.1c-14.2,0-25.7-11.5-25.7-25.7s11.5-25.7,25.7-25.7s25.7,11.5,25.7,25.7
	C126.1,114.6,114.6,126.1,100.5,126.1z M126.2,81.1c-3.4,0-6.2-2.8-6.2-6.2c0-3.4,2.8-6.2,6.2-6.2s6.2,2.8,6.2,6.2
	C132.3,78.4,129.6,81.1,126.2,81.1z"/>
<path class="st0" d="M100.5,0C45,0,0,45,0,100.5S45,201,100.5,201S201,156,201,100.5C200.9,45,155.9,0,100.5,0z M147.3,120.4
	c0,16.3-13.2,29.6-29.6,29.6H78.4c-16.3,0-29.6-13.2-29.6-29.6V81.1c0-16.3,13.2-29.6,29.6-29.6h39.3c16.3,0,29.6,13.2,29.6,29.6
	V120.4z"/>
<circle class="st0" cx="100.5" cy="100.5" r="15.7"/>
</svg>
