<?xml version="1.0" encoding="utf-8"?>
<!-- Generator: Adobe Illustrator 21.0.0, SVG Export Plug-In . SVG Version: 6.00 Build 0)  -->
<svg version="1.1" id="Layer_1" xmlns="http://www.w3.org/2000/svg" xmlns:xlink="http://www.w3.org/1999/xlink" x="0px" y="0px"
	 viewBox="0 0 368.4 304.2" style="enable-background:new 0 0 368.4 304.2;" xml:space="preserve">
<style type="text/css">
	.st0{fill:#EE355A;}
	.st1{fill:#55A4DB;}
</style>
<g>
	<g>
		<path class="st0" d="M143.8,46.9V61c0,7.5-3.7,11.2-11.2,11.2H128c-7.5,0-11.2-3.7-11.2-11.2v-39c0-7.5,3.7-11.2,11.2-11.2h4.5
			c7.5,0,11.1,3.6,11.1,11.1v12.3h-9.1V22.4c0-2.4-1.1-3.5-3.5-3.5h-1.6c-2.4,0-3.5,1.1-3.5,3.5v38.2c0,2.4,1.1,3.5,3.5,3.5h1.7
			c2.3,0,3.5-1.1,3.5-3.5V46.9H143.8z"/>
		<path class="st0" d="M185.1,71.7H176l-1.2-9.5h-9.6l-1.1,9.5h-8.5l8.6-60.5h12.3L185.1,71.7z M166.2,54h7.5L170,23.7L166.2,54z"/>
		<path class="st0" d="M217.7,11.2v8.4h-10.9V37h10.4v8.4h-10.4v26.3h-9.2V11.2H217.7z"/>
		<path class="st0" d="M251.4,11.2v8.4h-11.3v17.1H251v8.4h-10.9v18.2h11.5v8.4h-20.7V11.2H251.4z M241.8,0h8.7l-6.3,7.7h-6.1
			L241.8,0z"/>
	</g>
</g>
<g>
	<g>
		<path class="st0" d="M144.7,256.5c-3.1,0-5.6-2.5-5.6-5.6v-53.4c0-3.1-2.5-5.6-5.6-5.6H132c-3.1,0-5.6-1.6-5.6-3.5
			s2.5-3.5,5.6-3.5h8.4c3.1,0,5.6,2.5,5.6,5.6v53.4c0,3.1,2.5,5.6,5.6,5.6h1.4c3.1,0,5.6,1.6,5.6,3.5s-2.5,3.5-5.6,3.5H144.7z"/>
	</g>
	<g>
		<path class="st0" d="M101.1,256.5c-3.1,0-5.6-2.5-5.6-5.6v-132c0-3.1,1.6-5.6,3.5-5.6s3.5,2.5,3.5,5.6v125c0,3.1,2.5,5.6,5.6,5.6
			h1.4c3.1,0,5.6,1.6,5.6,3.5s-2.5,3.5-5.6,3.5H101.1z"/>
	</g>
	<g>
		<path class="st0" d="M142.5,162.4c-1.9,0-3.5-2.5-3.5-5.6v-37.9c0-3.1,1.6-5.6,3.5-5.6s3.5,2.5,3.5,5.6v37.9
			C146.1,159.9,144.5,162.4,142.5,162.4z"/>
	</g>
	<g>
		<path class="st0" d="M246.1,256.5c-3.1,0-5.9-2.5-6.3-5.6l-1.5-12.7c-0.4-3.1-3.2-5.6-6.3-5.6h-3.6c-3.1,0-5.5-1.3-5.2-2.8
			c0.2-1.5,2.9-2.8,6-2.8h9.3c3.1,0,5.9,2.5,6.3,5.6l1.5,11.3c0.4,3.1,3.2,5.6,6.3,5.6h0.5c3.1,0,5.8,1.6,6.1,3.5s-2,3.5-5.1,3.5
			H246.1z"/>
	</g>
	<g>
		<path class="st0" d="M197.3,256.5c-3.1,0-5.3-2.5-4.8-5.6l18.7-132.1c0.4-3.1,1.9-5.6,3.1-5.6s2,2.5,1.6,5.6l-17.8,125.1
			c-0.4,3.1,1.7,5.6,4.8,5.6h1.5c3.1,0,5.4,1.6,5.2,3.5c-0.2,1.9-2.9,3.5-6,3.5H197.3z"/>
	</g>
	<g>
		<path class="st0" d="M237.5,204.5c-2,0-3.9-2.5-4.3-5.6l-2.4-19.7c-0.4-3.1-0.4-8.1,0-11.1l2.3-18c0.4-3.1,1-3.1,1.4,0l6,48.8
			C240.8,202,239.5,204.5,237.5,204.5z"/>
	</g>
	<g>
		<path class="st0" d="M297.7,256.5c-3.1,0-5.6-2.5-5.6-5.6v-132c0-3.1,1.6-5.6,3.5-5.6s3.5,2.5,3.5,5.6v125c0,3.1,2.5,5.6,5.6,5.6
			h1.4c3.1,0,5.6,1.6,5.6,3.5s-2.5,3.5-5.6,3.5H297.7z"/>
	</g>
	<g>
		<path class="st0" d="M341.3,256.5c-3.1,0-5.6-2.5-5.6-5.6v-53.4c0-3.1-2.5-5.6-5.6-5.6h-1.4c-3.1,0-5.6-1.6-5.6-3.5
			s2.5-3.5,5.6-3.5h8.4c3.1,0,5.6,2.5,5.6,5.6v53.4c0,3.1,2.5,5.6,5.6,5.6h1.4c3.1,0,5.6,1.6,5.6,3.5s-2.5,3.5-5.6,3.5H341.3z"/>
	</g>
	<g>
		<path class="st0" d="M339.2,162.4c-1.9,0-3.5-2.5-3.5-5.6v-37.9c0-3.1,1.6-5.6,3.5-5.6c1.9,0,3.5,2.5,3.5,5.6v37.9
			C342.7,159.9,341.1,162.4,339.2,162.4z"/>
	</g>
</g>
<g>
	<path class="st0" d="M25.2,256.5C7.8,256.5,0,248.9,0,231.9v-25.9c0-1.5,1.2-2.8,2.8-2.8h0c1.6,0,2.8,1.3,2.8,2.8v16.5
		c0,18.6,9.8,28.4,28.4,28.4h9.7c2.2,0,4.4-0.2,6.5-0.6c1.5-0.3,2.3,1.7,1,2.5c-4,2.5-9.4,3.7-16.4,3.7H25.2z"/>
	<path class="st0" d="M44.6,162l-2.6-1.7c-0.8-0.5-1.3-1.4-1.3-2.4v-19.3c0-6.6-3.1-9.9-9.4-9.9h-0.5c0.1-4.8,2.3-7,6.7-7h2.7
		c4.8,0,7.5,2.7,7.5,7.6V154c0,1.6,1.3,2.8,2.8,2.8h7c1.6,0,2.8,1.3,2.8,2.8l0,0c0,1.6-1.3,2.8-2.8,2.8H46.1
		C45.6,162.4,45.1,162.3,44.6,162z"/>
	<path class="st0" d="M40.7,211.1c0-6.3-1.5-9.4-6.2-12.9l-2.9-2.4c-0.5-0.4-0.7-1-0.7-1.6v-1.6c0-1.1-0.9-2.1-2.1-2.1h-4.3
		c-0.4,0-0.9-0.1-1.2-0.4l-11.1-8.2C3.1,175.4,0,169.3,0,157.9V138c0-4.4,0.5-8.2,1.6-11.5c0.7-2.3,4.1-1.7,4.1,0.7
		c0,0.5,0,0.9,0,1.4v19.9c0,12,3.7,19.2,13.7,26.2l22.6,16.4c3.9,3,5.8,5.3,5.8,10.7v19.9c0,3.6-1.4,5.7-4.5,6.4
		c-1.3,0.3-2.5-0.7-2.5-2V211.1z"/>
	<path class="st1" d="M73.5,195.8v23.6c0,18-8.9,26.9-26.9,26.9h-9.7c-18,0-26.7-8.9-26.7-26.7V189h21.5v29.8c0,5.6,2.7,8.3,8.5,8.3
		h2.9c5.8,0,8.5-2.7,8.5-8.3V199c0-6-2.1-8.7-6.2-11.8L23,170.8c-9.9-7-12.8-13.9-12.8-25.1v-19.9c0-18,8.9-26.9,26.9-26.9h9.3
		c17.8,0,26.7,8.9,26.7,26.7v26.3H51.4v-25.5c0-5.6-2.7-8.3-8.3-8.3h-2.7c-5.6,0-8.3,2.7-8.3,8.3v16.2c0,6,2.1,8.9,6.2,11.8
		l22.4,16.4C70.4,177.8,73.5,184,73.5,195.8z"/>
</g>
<path class="st1" d="M149.8,161.2v-61.1H172v145.1h-22.2v-63.8h-21.3v63.8h-22.2V100.1h22.2v61.1H149.8z"/>
<path class="st1" d="M272.9,245.2h-22l-2.9-22.8h-23l-2.7,22.8h-20.5l20.7-145.3H252L272.9,245.2z M227.5,202.7h18l-8.9-72.5
	L227.5,202.7z"/>
<path class="st1" d="M346.3,161.2v-61.1h22.2v145.1h-22.2v-63.8h-21.3v63.8h-22.2V100.1h22.2v61.1H346.3z"/>
<path class="st0" d="M223,285.5h-77.5c-1.7,0-3-1.3-3-3v-2.4c0-1.7,1.3-3,3-3H223c1.7,0,3,1.3,3,3v2.4
	C226,284.2,224.6,285.5,223,285.5z"/>
<path class="st0" d="M204.9,304.2h-41.3c-1.7,0-3-1.3-3-3v-2.4c0-1.7,1.3-3,3-3h41.3c1.7,0,3,1.3,3,3v2.4
	C207.9,302.9,206.5,304.2,204.9,304.2z"/>
</svg>
