<?xml version="1.0" encoding="utf-8"?>
<!-- Generator: Adobe Illustrator 21.0.0, SVG Export Plug-In . SVG Version: 6.00 Build 0)  -->
<svg version="1.1" id="Layer_1" xmlns="http://www.w3.org/2000/svg" xmlns:xlink="http://www.w3.org/1999/xlink" x="0px" y="0px"
	 viewBox="0 0 230.3 217.4" style="enable-background:new 0 0 230.3 217.4;" xml:space="preserve">
<style type="text/css">
	.st0{fill:#F9DC01;}
	.st1{fill:#EE355A;}
	.st2{fill:#55A4DB;}
</style>
<g>
	<rect x="16.6" class="st0" width="198.9" height="217.4"/>
	<g>
		<path class="st1" d="M95.4,57.3v6.9c0,3.7-1.8,5.5-5.5,5.5h-2.2c-3.7,0-5.5-1.8-5.5-5.5V45.2c0-3.7,1.8-5.5,5.5-5.5h2.2
			c3.7,0,5.4,1.8,5.4,5.4v6h-4.4v-5.8c0-1.2-0.5-1.7-1.7-1.7h-0.8c-1.2,0-1.7,0.5-1.7,1.7V64c0,1.2,0.5,1.7,1.7,1.7h0.8
			c1.1,0,1.7-0.5,1.7-1.7v-6.7H95.4z"/>
		<path class="st1" d="M115.6,69.4h-4.5l-0.6-4.6h-4.7l-0.5,4.6h-4.2l4.2-29.5h6L115.6,69.4z M106.3,60.8h3.7L108.2,46L106.3,60.8z"
			/>
		<path class="st1" d="M131.5,39.9V44h-5.3v8.5h5.1v4.1h-5.1v12.8h-4.5V39.9H131.5z"/>
		<path class="st1" d="M147.9,39.9V44h-5.5v8.3h5.3v4.1h-5.3v8.9h5.6v4.1h-10.1V39.9H147.9z M143.2,34.4h4.3l-3.1,3.8h-3L143.2,34.4
			z"/>
		<path class="st1" d="M95.8,159.6c-1.5,0-2.7-1.2-2.7-2.7v-26c0-1.5-1.2-2.7-2.7-2.7h-0.7c-1.5,0-2.7-0.8-2.7-1.7
			c0-0.9,1.2-1.7,2.7-1.7h4.1c1.5,0,2.7,1.2,2.7,2.7v26c0,1.5,1.2,2.7,2.7,2.7h0.7c1.5,0,2.7,0.8,2.7,1.7c0,0.9-1.2,1.7-2.7,1.7
			H95.8z"/>
		<path class="st1" d="M74.6,159.6c-1.5,0-2.7-1.2-2.7-2.7V92.5c0-1.5,0.8-2.7,1.7-2.7c0.9,0,1.7,1.2,1.7,2.7v61
			c0,1.5,1.2,2.7,2.7,2.7h0.7c1.5,0,2.7,0.8,2.7,1.7c0,0.9-1.2,1.7-2.7,1.7H74.6z"/>
		<path class="st1" d="M94.8,113.7c-0.9,0-1.7-1.2-1.7-2.7V92.5c0-1.5,0.8-2.7,1.7-2.7c0.9,0,1.7,1.2,1.7,2.7V111
			C96.5,112.5,95.7,113.7,94.8,113.7z"/>
		<path class="st1" d="M145.3,159.6c-1.5,0-2.9-1.2-3.1-2.7l-0.8-6.2c-0.2-1.5-1.6-2.7-3.1-2.7h-1.8c-1.5,0-2.7-0.6-2.6-1.4
			c0.1-0.8,1.4-1.4,2.9-1.4h4.5c1.5,0,2.9,1.2,3.1,2.7l0.7,5.5c0.2,1.5,1.6,2.7,3.1,2.7h0.2c1.5,0,2.8,0.8,3,1.7
			c0.1,0.9-1,1.7-2.5,1.7H145.3z"/>
		<path class="st1" d="M121.5,159.6c-1.5,0-2.6-1.2-2.4-2.7l9.1-64.5c0.2-1.5,0.9-2.7,1.5-2.7s1,1.2,0.8,2.7l-8.7,61.1
			c-0.2,1.5,0.8,2.7,2.4,2.7h0.8c1.5,0,2.7,0.8,2.5,1.7c-0.1,0.9-1.4,1.7-2.9,1.7H121.5z"/>
		<path class="st1" d="M141.2,134.3c-1,0-1.9-1.2-2.1-2.7l-1.2-9.6c-0.2-1.5-0.2-3.9,0-5.4l1.1-8.8c0.2-1.5,0.5-1.5,0.7,0l2.9,23.8
			C142.8,133.1,142.1,134.3,141.2,134.3z"/>
		<path class="st1" d="M170.5,159.6c-1.5,0-2.7-1.2-2.7-2.7V92.5c0-1.5,0.8-2.7,1.7-2.7s1.7,1.2,1.7,2.7v61c0,1.5,1.2,2.7,2.7,2.7
			h0.7c1.5,0,2.7,0.8,2.7,1.7c0,0.9-1.2,1.7-2.7,1.7H170.5z"/>
		<path class="st1" d="M191.8,159.6c-1.5,0-2.7-1.2-2.7-2.7v-26c0-1.5-1.2-2.7-2.7-2.7h-0.7c-1.5,0-2.7-0.8-2.7-1.7
			c0-0.9,1.2-1.7,2.7-1.7h4.1c1.5,0,2.7,1.2,2.7,2.7v26c0,1.5,1.2,2.7,2.7,2.7h0.7c1.5,0,2.7,0.8,2.7,1.7c0,0.9-1.2,1.7-2.7,1.7
			H191.8z"/>
		<path class="st1" d="M190.8,113.7c-0.9,0-1.7-1.2-1.7-2.7V92.5c0-1.5,0.8-2.7,1.7-2.7s1.7,1.2,1.7,2.7V111
			C192.5,112.5,191.7,113.7,190.8,113.7z"/>
		<path class="st1" d="M37.5,159.6c-8.5,0-12.3-3.7-12.3-12v-12.7c0-0.7,0.6-1.4,1.4-1.4h0c0.8,0,1.4,0.6,1.4,1.4v8.1
			c0,9.1,4.8,13.9,13.9,13.9h4.8c1.1,0,2.1-0.1,3.2-0.3c0.7-0.1,1.1,0.8,0.5,1.2c-1.9,1.2-4.6,1.8-8,1.8H37.5z"/>
		<path class="st1" d="M47,113.5l-1.3-0.8c-0.4-0.3-0.6-0.7-0.6-1.2v-9.4c0-3.2-1.5-4.8-4.6-4.8h-0.2c0.1-2.3,1.1-3.4,3.3-3.4h1.3
			c2.4,0,3.7,1.3,3.7,3.7v12.1c0,0.8,0.6,1.4,1.4,1.4h3.4c0.8,0,1.4,0.6,1.4,1.4l0,0c0,0.8-0.6,1.4-1.4,1.4h-5.6
			C47.5,113.7,47.2,113.6,47,113.5z"/>
		<path class="st1" d="M45.1,137.5c0-3.1-0.7-4.6-3-6.3l-1.4-1.2c-0.2-0.2-0.4-0.5-0.4-0.8v-0.8c0-0.6-0.5-1-1-1h-2.1
			c-0.2,0-0.4-0.1-0.6-0.2l-5.4-4c-4.5-3.2-6-6.1-6-11.7v-9.7c0-2.2,0.3-4,0.8-5.6c0.4-1.1,2-0.8,2,0.3c0,0.2,0,0.5,0,0.7v9.7
			c0,5.9,1.8,9.3,6.7,12.8l11,8c1.9,1.4,2.8,2.6,2.8,5.2v9.7c0,1.8-0.7,2.8-2.2,3.1c-0.6,0.1-1.2-0.3-1.2-1V137.5z"/>
		<path class="st2" d="M61.1,130v11.5c0,8.8-4.3,13.1-13.1,13.1h-4.8c-8.8,0-13-4.3-13-13v-15h10.5v14.6c0,2.7,1.3,4,4.1,4h1.4
			c2.8,0,4.1-1.3,4.1-4v-9.7c0-2.9-1-4.2-3-5.8l-10.9-8c-4.9-3.4-6.3-6.8-6.3-12.2v-9.7c0-8.8,4.3-13.1,13.1-13.1h4.6
			c8.7,0,13,4.3,13,13v12.8H50.3V96.2c0-2.7-1.3-4-4-4h-1.3c-2.7,0-4,1.3-4,4v7.9c0,2.9,1,4.3,3,5.8l10.9,8
			C59.6,121.2,61.1,124.3,61.1,130z"/>
		<path class="st2" d="M98.3,113.1V83.3h10.8v70.8H98.3V123H87.9v31.2H77.1V83.3h10.8v29.8H98.3z"/>
		<path class="st2" d="M158.4,154.1h-10.7l-1.4-11.1h-11.2l-1.3,11.1h-10l10.1-70.9h14.4L158.4,154.1z M136.3,133.4h8.8L140.7,98
			L136.3,133.4z"/>
		<path class="st2" d="M194.2,113.1V83.3H205v70.8h-10.8V123h-10.4v31.2H173V83.3h10.8v29.8H194.2z"/>
		<path class="st1" d="M133.5,173.8H96.8c-1.1,0-2-0.9-2-2v0c0-1.1,0.9-2,2-2h36.7c1.1,0,2,0.9,2,2v0
			C135.5,172.9,134.6,173.8,133.5,173.8z"/>
		<path class="st1" d="M124.6,182.9h-19c-1.1,0-2-0.9-2-2v0c0-1.1,0.9-2,2-2h19c1.1,0,2,0.9,2,2v0
			C126.7,182,125.8,182.9,124.6,182.9z"/>
	</g>
</g>
</svg>
