<svg xmlns="http://www.w3.org/2000/svg" width="60px" viewBox="0 0 20 23.85"><defs><style>.a{fill:#f9dc01;}.b{fill:#ee355a;}.c{fill:#55a4db;}</style></defs><title>marker</title><path class="a" d="M9.69,0h.67a9.71,9.71,0,0,1,2.14.31,10,10,0,0,1,7.27,11.86,10,10,0,0,1-1.85,3.95,9.75,9.75,0,0,1-.85,1c-.38.38-.77.74-1.15,1.1l-1.35,1.29-1.65,1.58-1.1,1.06L10.4,23.47l-.4.38-.24-.22L7.93,21.9,5.47,19.58,3.63,17.84c-.26-.25-.53-.48-.77-.74a10.31,10.31,0,0,1-2.38-4A9.84,9.84,0,0,1,0,10.33a.28.28,0,0,0,0,0q0-.22,0-.45v0c0-.31,0-.62.07-.92a9.35,9.35,0,0,1,.43-2A10,10,0,0,1,3.1,2.79,9.93,9.93,0,0,1,9.41,0Z"/><path class="b" d="M8.09,4.08v.66a.47.47,0,0,1-.53.53H7.35a.47.47,0,0,1-.53-.53V2.9a.47.47,0,0,1,.53-.53h.21a.46.46,0,0,1,.53.53v.58H7.66V2.92c0-.11-.05-.17-.16-.17H7.42a.15.15,0,0,0-.17.17v1.8a.15.15,0,0,0,.17.17H7.5c.11,0,.16-.05.16-.17V4.08Z"/><path class="b" d="M10,5.25H9.61L9.55,4.8H9.1L9,5.25h-.4l.41-2.86h.58Zm-.89-.84H9.5L9.33,3Z"/><path class="b" d="M11.58,2.4v.4h-.51v.82h.49V4h-.49V5.25h-.44V2.4Z"/><path class="b" d="M13.17,2.4v.4h-.53V3.6h.51V4h-.51v.86h.54v.4h-1V2.4Zm-.46-.53h.41l-.3.36h-.29Z"/><path class="b" d="M8.13,14a.27.27,0,0,1-.27-.27V11.19a.27.27,0,0,0-.27-.27H7.54c-.15,0-.27-.07-.27-.17s.12-.17.27-.17h.4a.27.27,0,0,1,.27.27v2.52a.27.27,0,0,0,.27.27h.07c.15,0,.27.07.27.17s-.12.17-.27.17Z"/><path class="b" d="M6.08,14a.27.27,0,0,1-.27-.27V7.48c0-.15.07-.27.17-.27s.17.12.17.27v5.9a.27.27,0,0,0,.27.27h.07c.15,0,.27.07.27.17s-.12.17-.27.17Z"/><path class="b" d="M8,9.53c-.09,0-.17-.12-.17-.27V7.48c0-.15.07-.27.17-.27s.17.12.17.27V9.27C8.2,9.41,8.12,9.53,8,9.53Z"/><path class="b" d="M12.92,14a.31.31,0,0,1-.3-.26l-.07-.6a.31.31,0,0,0-.3-.26h-.17c-.15,0-.26-.06-.25-.13s.14-.13.28-.13h.44a.31.31,0,0,1,.3.26l.07.53a.31.31,0,0,0,.3.26h0c.15,0,.28.07.29.17s-.1.17-.24.17Z"/><path class="b" d="M10.62,14a.22.22,0,0,1-.23-.26l.88-6.24c0-.14.09-.26.15-.26s.09.12.07.26l-.84,5.9a.22.22,0,0,0,.23.26H11c.15,0,.26.07.25.17s-.14.17-.28.17Z"/><path class="b" d="M12.52,11.52c-.09,0-.18-.12-.2-.26l-.11-.93a2.58,2.58,0,0,1,0-.53L12.31,9c0-.14,0-.14.07,0l.28,2.3C12.67,11.4,12.61,11.52,12.52,11.52Z"/><path class="b" d="M15.36,14a.27.27,0,0,1-.27-.27V7.48c0-.15.07-.27.17-.27s.17.12.17.27v5.9a.27.27,0,0,0,.27.27h.07c.15,0,.27.07.27.17s-.12.17-.27.17Z"/><path class="b" d="M17.41,14a.27.27,0,0,1-.27-.27V11.19a.27.27,0,0,0-.27-.27h-.07c-.15,0-.27-.07-.27-.17s.12-.17.27-.17h.4a.27.27,0,0,1,.27.27v2.52a.27.27,0,0,0,.27.27h.07c.15,0,.27.07.27.17S18,14,17.81,14Z"/><path class="b" d="M17.31,9.53c-.09,0-.17-.12-.17-.27V7.48c0-.15.07-.27.17-.27s.17.12.17.27V9.27C17.48,9.41,17.4,9.53,17.31,9.53Z"/><path class="b" d="M2.49,14c-.82,0-1.19-.36-1.19-1.16V11.58a.13.13,0,0,1,.13-.13h0a.13.13,0,0,1,.13.13v.78a1.2,1.2,0,0,0,1.34,1.34h.46l.31,0a.06.06,0,0,1,0,.12A1.45,1.45,0,0,1,3,14Z"/><path class="b" d="M3.41,9.51l-.12-.08a.13.13,0,0,1-.06-.11V8.41c0-.31-.15-.47-.44-.47h0c0-.23.11-.33.31-.33h.13A.32.32,0,0,1,3.56,8V9.13a.13.13,0,0,0,.13.13H4a.13.13,0,0,1,.13.13h0A.13.13,0,0,1,4,9.53H3.48Z"/><path class="b" d="M3.23,11.83a.64.64,0,0,0-.29-.61l-.14-.11a.1.1,0,0,1,0-.08V11a.1.1,0,0,0-.1-.1h-.2l-.06,0-.52-.39a1.19,1.19,0,0,1-.58-1.13V8.38a1.75,1.75,0,0,1,.07-.54.1.1,0,0,1,.19,0s0,0,0,.07v.94a1.33,1.33,0,0,0,.65,1.24l1.07.77a.55.55,0,0,1,.28.5v.94a.27.27,0,0,1-.21.3.1.1,0,0,1-.12-.1Z"/><path class="c" d="M4.78,11.11v1.11A1.12,1.12,0,0,1,3.51,13.5H3a1.11,1.11,0,0,1-1.26-1.26V10.79h1v1.41c0,.26.13.39.4.39h.14c.27,0,.4-.13.4-.39v-.94a.6.6,0,0,0-.29-.56L2.39,9.93a1.26,1.26,0,0,1-.61-1.18V7.8A1.12,1.12,0,0,1,3.06,6.53H3.5A1.12,1.12,0,0,1,4.76,7.79V9h-1V7.83a.34.34,0,0,0-.39-.39H3.21a.34.34,0,0,0-.39.39V8.6a.59.59,0,0,0,.29.56l1.06.77A1.25,1.25,0,0,1,4.78,11.11Z"/><path class="c" d="M8.38,9.48V6.59h1v6.85h-1v-3h-1v3h-1V6.59h1V9.48Z"/><path class="c" d="M14.19,13.44h-1L13,12.36H11.93l-.13,1.08h-1l1-6.86H13.2Zm-2.14-2h.85L12.47,8Z"/><path class="c" d="M17.65,9.48V6.59h1v6.85h-1v-3h-1v3h-1V6.59h1V9.48Z"/><rect class="b" x="8.03" y="14.94" width="3.94" height="0.4" rx="0.2" ry="0.2"/><rect class="b" x="8.88" y="15.83" width="2.23" height="0.4" rx="0.2" ry="0.2"/></svg>
