<?xml version="1.0" encoding="utf-8"?>
<!-- Generator: Adobe Illustrator 21.0.0, SVG Export Plug-In . SVG Version: 6.00 Build 0)  -->
<svg version="1.1" id="Layer_1" xmlns="http://www.w3.org/2000/svg" xmlns:xlink="http://www.w3.org/1999/xlink" x="0px" y="0px"
	 viewBox="0 0 323.1 323.1" style="enable-background:new 0 0 323.1 323.1;" xml:space="preserve">
<style type="text/css">
	.st0{fill:#F9DC04;}
</style>
<g>
	<path class="st0" d="M0,169c0-4.9,0-9.8,0-14.6c0.1-0.3,0.2-0.5,0.2-0.8c0.5-5,0.8-10.1,1.5-15.1c2.5-18,8-35.1,16.4-51.2
		c16.9-32,41.6-56,74.3-71.6c18.4-8.8,37.8-13.8,58.1-15.1c1.8-0.1,3.5-0.3,5.3-0.4c3.8,0,7.7,0,11.5,0c0.3,0.1,0.5,0.2,0.8,0.2
		c9.7,0.3,19.4,1.6,28.8,3.7c30.3,6.9,56.5,21.3,78.6,43.1c13.2,13,23.7,27.9,31.7,44.6c11.8,24.6,16.9,50.5,15.7,77.7
		c-0.7,14.7-3.3,29-7.9,42.9c-8.3,25-21.9,46.8-40.8,65.2c-13,12.6-27.6,22.8-44.1,30.5c-23.1,10.8-47.5,15.8-73,15.2
		c-9.7-0.3-19.4-1.3-28.9-3.4c-30.7-6.5-57.2-20.8-79.7-42.6c-14-13.6-25-29.2-33.3-46.8c-9-19.1-14-39.2-15.1-60.3
		C0.2,169.6,0.1,169.3,0,169z M83,142.6c0,0.1-0.1,0.3-0.1,0.4c-3.3-0.6-6.6-1-9.7-1.8c-3.2-0.8-6.2-2.1-9.3-3.2
		c0,9.9,3.4,18.6,10,26c6.5,7.3,14.7,11.8,24.3,14c-6.2,1.6-12.5,1.7-18.9,0.7c1.6,5.5,5.8,11.9,10.8,16.4
		c8.3,7.5,18.2,11.3,29.4,11.9c-19.1,13.5-40.3,18.8-63.5,16.7c0.1,0.2,0.1,0.3,0.1,0.3c0.3,0.2,0.5,0.3,0.8,0.5
		c19.4,11.2,40.3,16.8,62.6,17.3c10,0.2,19.9-0.6,29.7-2.5c26.8-5.2,49.8-17.5,67.9-38.2c19.6-22.4,29.7-48.6,29-78.6
		c0-0.9,0.3-1.4,1-1.8c6.9-4.7,13-10.4,18.2-16.9c0.8-1,1.6-2,2.4-3.1c-7.8,2.9-15.7,5-24,5.8c4.2-2.6,7.9-5.7,11-9.4
		c3.1-3.7,5.6-7.8,7.2-12.7c-0.4,0.2-0.6,0.2-0.8,0.4c-8.1,4.4-16.6,7.4-25.6,9.2c-0.8,0.2-1.3,0.1-1.9-0.5
		c-7.8-7.2-17-11.2-27.6-11.9c-14.2-0.9-26.5,3.4-36.4,13.8c-7.5,7.9-11.2,17.5-10.6,28.5c0.1,2.4,0.5,4.7,0.8,7.3
		c-35.4-2.3-65.5-15.9-89.5-42.3C59.7,105.1,62.8,129.5,83,142.6z"/>
</g>
</svg>
